<svg xmlns="http://www.w3.org/2000/svg" width="24" height="24" viewBox="0 0 24 24">
    <g fill="#516081" fill-rule="nonzero">
        <path d="M7.584 13.435H4.97a7.19 7.19 0 0 1-.117-.814.478.478 0 0 0-.953.082 8.138 8.138 0 0 0 .226 1.33 8.124 8.124 0 0 0 5.842 5.841.478.478 0 0 0 .597-.463v-2.995a2.985 2.985 0 0 0-2.98-2.981zm2.025 5.331a7.167 7.167 0 0 1-4.375-4.375h2.35c1.116 0 2.025.909 2.025 2.025v2.35z"/>
        <path d="M19.778 4.222A10.928 10.928 0 0 0 12 1C9.062 1 6.3 2.144 4.222 4.222A10.928 10.928 0 0 0 1 12c0 2.938 1.144 5.7 3.222 7.778A10.928 10.928 0 0 0 12 23c2.938 0 5.7-1.144 7.778-3.222A10.928 10.928 0 0 0 23 12c0-2.938-1.144-5.7-3.222-7.778zM12 22.043C6.462 22.043 1.957 17.538 1.957 12 1.957 6.462 6.462 1.957 12 1.957c5.538 0 10.043 4.505 10.043 10.043 0 5.538-4.505 10.043-10.043 10.043z"/>
        <path d="M19.789 13.62a.478.478 0 0 0-.378-.185h-2.995a2.985 2.985 0 0 0-2.981 2.98v2.996a.478.478 0 0 0 .597.463 8.124 8.124 0 0 0 5.842-5.842.478.478 0 0 0-.085-.412zm-5.398 5.146v-2.35c0-1.116.909-2.025 2.025-2.025h2.35a7.168 7.168 0 0 1-4.375 4.375zM12 10.087A1.915 1.915 0 0 0 10.087 12c0 1.055.858 1.913 1.913 1.913A1.915 1.915 0 0 0 13.913 12 1.915 1.915 0 0 0 12 10.087zm0 2.87a.958.958 0 0 1 0-1.914.958.958 0 0 1 0 1.914z"/>
        <path d="M19.76 9.568l-.001-.004a8.2 8.2 0 0 0-2.9-4.084A8.062 8.062 0 0 0 12 3.87a8.063 8.063 0 0 0-4.858 1.61A8.2 8.2 0 0 0 4.24 9.567a.478.478 0 0 0 .525.616C6.568 9.921 9.287 9.61 12 9.61c2.565 0 5.134.279 6.93.531.162.604.244 1.228.244 1.86a.478.478 0 0 0 .956 0c0-.83-.124-1.648-.37-2.432zM12 8.652c-2.395 0-4.787.238-6.576.474A7.14 7.14 0 0 1 12 4.826a7.14 7.14 0 0 1 6.576 4.3c-1.789-.236-4.181-.474-6.576-.474z"/>
    </g>
</svg>
