<svg xmlns="http://www.w3.org/2000/svg" width="24" height="24" viewBox="0 0 24 24">
    <g fill="#516081" fill-rule="nonzero">
        <path d="M13.646 4h-8.08a.458.458 0 0 0-.457.457v5.34c0 .252.206.457.457.457h8.08a.458.458 0 0 0 .457-.456V4.457A.458.458 0 0 0 13.646 4zm-.456 5.341H6.022V4.913h7.168v4.428z"/>
        <path d="M22.462 21.923h-6.098v-8.205H16.2c.759 0 1.374.62 1.37 1.38v1.43a2.716 2.716 0 0 0 2.717 2.718 2.716 2.716 0 0 0 2.718-2.718V8.415a3.326 3.326 0 0 0-.887-2.272l-4.01-4.569-.77.677 3.108 3.544a2.061 2.061 0 0 0-1.692 2.374 2.06 2.06 0 0 0 3.225 1.344v7.015c0 .934-.758 1.693-1.692 1.693a1.694 1.694 0 0 1-1.692-1.693v-1.42a2.404 2.404 0 0 0-2.39-2.416h.16V3.138C16.364 1.97 15.42 1 14.25 1H4.723c-1.17 0-2.102.974-2.102 2.138v18.785H1.513a.514.514 0 0 0-.513.513c0 .282.23.513.513.513h20.954c.282 0 .512-.231.512-.513a.515.515 0 0 0-.517-.513zM20.79 8.862a1.036 1.036 0 1 1 0-2.073 1.036 1.036 0 0 1 0 2.073zm-5.452 13.061H3.646V3.138c0-.605.472-1.112 1.077-1.112h9.528c.605 0 1.087.512 1.087 1.112v18.785z"/>
    </g>
</svg>
